<svg xmlns="http://www.w3.org/2000/svg" width="200" height="70" viewBox="0 0 200 70"><defs><clipPath id="prefix__clip-path"><path id="prefix__Rectangle_722" fill="#fff" stroke="#707070" d="M0 0h56v56H0z" data-name="Rectangle 722" transform="translate(-.248 -.453)"/></clipPath><style>.prefix__cls-12{fill:#ffd5bf}.prefix__cls-13{fill:#f9cdba}.prefix__cls-14{fill:#fbe3da}.prefix__cls-15{fill:#e99d5d}.prefix__cls-20{fill:#ff8680}</style></defs><g id="prefix__Group_5432" data-name="Group 5432" transform="translate(5793 6606)"><g id="prefix__Group_5400" data-name="Group 5400" transform="translate(-5939 -7165)"><g id="prefix__Group_5387" data-name="Group 5387" transform="translate(146 559)"><rect id="prefix__Rectangle_1206" width="200" height="70" fill="#d5fcdb" data-name="Rectangle 1206" rx="3"/></g></g><g id="prefix__Group_5405" data-name="Group 5405" transform="translate(-14493.999 9924)"><g id="prefix__Mask_Group_86" clip-path="url(#prefix__clip-path)" data-name="Mask Group 86" transform="translate(8715.248 -16522.547)"><path id="prefix__Path_26545" fill="#fff" d="M29.019 0c11.524 0 14.157 11.96 14.157 23.484a18.543 18.543 0 01-.147 2.259C41.941 35.56 31.7 39.987 20.837 39.987 9.312 39.987 0 32.822 0 21.3S17.495 0 29.019 0z" data-name="Path 26545" transform="rotate(-39 35.798 20.833)"/><g id="prefix__Group_5378" data-name="Group 5378" transform="translate(16.163 14.601)"><path id="prefix__Path_26546" fill="#17aaa6" d="M168-232.24v5.5h2.2v-1.6a12.028 12.028 0 01-2.011-3.9z" data-name="Path 26546" transform="translate(-144.909 234.4)"/><path id="prefix__Path_26547" fill="#23b9b9" d="M169.371-232.24a12.028 12.028 0 002.011 3.9v-3.9z" data-name="Path 26547" transform="translate(-146.091 234.4)"/><path id="prefix__Path_26548" fill="#c7d8dd" d="M184-203.863v1.6h4.4v7.7h2.749a15.516 15.516 0 01-2.2-8.247 4.064 4.064 0 01-4.949-1.053z" data-name="Path 26548" transform="translate(-158.71 209.923)"/><path id="prefix__Path_26549" fill="#ccdee6" d="M190.225-232.24H184v3.9a4.064 4.064 0 004.948 1.048 15.516 15.516 0 002.2 8.247h.279a29.048 29.048 0 00-1.202-13.195z" data-name="Path 26549" transform="translate(-158.71 234.4)"/><path id="prefix__Path_26550" fill="#dfebf0" d="M231.854-230.041l-2.2-2.2h-.374a29.046 29.046 0 011.2 13.2h1.37z" data-name="Path 26550" transform="translate(-197.766 234.4)"/><path id="prefix__Path_26551" fill="#a3c8d5" d="M200-218.041h3.3v-2.2H200z" data-name="Path 26551" transform="translate(-172.511 224.049)"/><path id="prefix__Path_26552" fill="#efc2b0" d="M40.536-118L28-120l1.875 2.705a1.685 1.685 0 01.3 1.254l-.616 3.546 1.847.22a1.733 1.733 0 01.44-.061c0-1.649 1.649-3.849 0-4.948 2.9-.003 6.108.619 8.69-.716z" data-name="Path 26552" transform="translate(-24.153 137.59)"/><path id="prefix__Path_26553" d="M106.291-93.21l.878.1-.526-3.626a2.129 2.129 0 01.926-2.071l.256-.177c-1.933.884-2.652 3.263-1.534 5.774z" class="prefix__cls-12" data-name="Path 26553" transform="translate(-91.225 119.457)"/><path id="prefix__Path_26554" d="M61.927-105.41c-2.581 1.332-5.789.711-8.686.711 1.649 1.1 0 3.3 0 4.948a1.733 1.733 0 00-.44.06l7.809.935c-1.117-2.511-.4-4.892 1.534-5.77l.994-.69z" class="prefix__cls-13" data-name="Path 26554" transform="translate(-45.544 125.003)"/><path id="prefix__Path_26555" d="M6.929-244.5a10.067 10.067 0 00-3.212 1.715 10.076 10.076 0 00-3.166 4.4 9.51 9.51 0 00-.525 2.474 9.778 9.778 0 00.289 3.168 9.789 9.789 0 004.313 5.793 10.006 10.006 0 004.286 1.479l3.59.155c-6.32-3.984-9.983-12.696-5.575-19.184z" class="prefix__cls-13" data-name="Path 26555" transform="translate(0 244.972)"/><path id="prefix__Path_26556" d="M86.4-240.1c.871 2.613 1.743 4.89 2.613 7.633a1.082 1.082 0 00.59-1.443l-1.818-4.068a9.894 9.894 0 00-9.289-9.749A17.4 17.4 0 0186.4-240.1z" class="prefix__cls-14" data-name="Path 26556" transform="translate(-67.703 247.756)"/><path id="prefix__Path_26557" d="M133.761-125.317h.811a1.133 1.133 0 001.146-1.1v-2.3c-.526 1.198-.86 2.489-1.957 3.4z" class="prefix__cls-14" data-name="Path 26557" transform="translate(-115.375 145.104)"/><path id="prefix__Path_26558" d="M51.685-231.564v-1h.531l.019-.031-.019.031a1.134 1.134 0 00.433-.1c-.87-2.743-1.742-5.02-2.613-7.633a17.4 17.4 0 00-7.9-7.626 10.5 10.5 0 00-1.942.029 9.938 9.938 0 00-1.917.415c-4.408 6.485-.745 15.2 5.575 19.186l2.891.125h2.991c1.091-.909 1.425-2.2 1.951-3.396z" class="prefix__cls-12" data-name="Path 26558" transform="translate(-31.342 247.953)"/><path id="prefix__Path_26559" d="M8.586-71.33a9.633 9.633 0 00-6.867 3.673A10.052 10.052 0 000-61.526h6.03c-1.021-3.913-1.601-7.818 2.556-9.804z" class="prefix__cls-15" data-name="Path 26559" transform="translate(0 95.607)"/><path id="prefix__Path_26560" fill="#febd73" d="M94.815-68.436a12.463 12.463 0 00-4.893-1.944c2.941 2.915 5.894 5.931 7.453 9.674h2.18a12.488 12.488 0 00-3.006-6.255 10.547 10.547 0 00-1.734-1.475z" data-name="Path 26560" transform="translate(-77.562 94.788)"/><path id="prefix__Path_26561" fill="#fab06a" d="M45.564-71.691a13.3 13.3 0 00-3.774-.131c-4.157 1.986-3.576 5.891-2.555 9.8h13.781c-1.558-3.738-4.511-6.753-7.452-9.669z" data-name="Path 26561" transform="translate(-33.204 96.098)"/><path id="prefix__Path_26562" fill="#fb8e52" d="M35.731-20.908h10.484v-3.332H35.731z" data-name="Path 26562" transform="translate(-30.82 54.99)"/><path id="prefix__Path_26563" fill="#d8874b" d="M29.064-24.24L28-20.941l1.063.033z" data-name="Path 26563" transform="translate(-24.153 54.99)"/><path id="prefix__Path_26564" d="M105.1-20.908L104-24.24h1.1z" class="prefix__cls-15" data-name="Path 26564" transform="translate(-89.706 54.99)"/><path id="prefix__Path_26565" d="M160-215.69h.55v-.55H160z" class="prefix__cls-20" data-name="Path 26565" transform="translate(-138.009 220.599)"/><path id="prefix__Path_26566" d="M156-219.69h.55v-.55H156z" class="prefix__cls-20" data-name="Path 26566" transform="translate(-134.558 224.049)"/><path id="prefix__Path_26567" d="M156-211.69h.55v-.55H156z" class="prefix__cls-20" data-name="Path 26567" transform="translate(-134.558 217.149)"/><path id="prefix__Path_26568" d="M152-207.69h.55v-.55H152z" class="prefix__cls-20" data-name="Path 26568" transform="translate(-131.108 213.699)"/><path id="prefix__Path_26569" d="M152-223.69h.55v-.55H152z" class="prefix__cls-20" data-name="Path 26569" transform="translate(-131.108 227.499)"/><path id="prefix__Path_26570" d="M152-215.69h.55v-.55H152z" class="prefix__cls-20" data-name="Path 26570" transform="translate(-131.108 220.599)"/><path id="prefix__Path_26571" d="M148-203.69h.55v-.55H148z" class="prefix__cls-20" data-name="Path 26571" transform="translate(-127.658 210.248)"/><path id="prefix__Path_26572" d="M148-219.69h.55v-.55H148z" class="prefix__cls-20" data-name="Path 26572" transform="translate(-127.658 224.049)"/><path id="prefix__Path_26573" d="M148-227.69h.55v-.55H148z" class="prefix__cls-20" data-name="Path 26573" transform="translate(-127.658 230.95)"/><path id="prefix__Path_26574" d="M148-211.69h.55v-.55H148z" class="prefix__cls-20" data-name="Path 26574" transform="translate(-127.658 217.149)"/><path id="prefix__Path_26575" fill="#404042" d="M86.394-170.9a.547.547 0 01-.209-.044.635.635 0 01-.181-.115.578.578 0 01-.159-.39.578.578 0 01.159-.39.636.636 0 01.181-.115.549.549 0 01.6.115.578.578 0 01.159.39.578.578 0 01-.159.39.578.578 0 01-.391.159z" data-name="Path 26575" transform="translate(-71.021 179.683)"/></g></g><text id="prefix__Temperature_Checks_regularly" data-name="Temperature Checks regularly" font-family="Poppins-MediumItalic, Poppins" font-size="12" font-style="italic" font-weight="500" transform="translate(8781 -16499)"><tspan x="0" y="0">Temperature </tspan><tspan x="0" y="18">Checks regularly</tspan></text></g></g></svg>