<svg xmlns="http://www.w3.org/2000/svg" width="55" height="55" viewBox="0 0 55 55"><defs><clipPath id="prefix__clip-path"><path id="prefix__Rectangle_1170" d="M0 0h55v55H0z" data-name="Rectangle 1170" transform="translate(.48 .464)" fill="#fff" stroke="#707070"/></clipPath><style>.prefix__cls-4{fill:#f1c6b4}.prefix__cls-5{fill:#f1bda7}.prefix__cls-6{fill:#dfaf9d}.prefix__cls-7{fill:#f4cfc2}.prefix__cls-11{fill:#fb8e52}.prefix__cls-12{fill:#656f74}.prefix__cls-13{fill:#2e3b40}.prefix__cls-17{fill:#b4d3df}.prefix__cls-18{fill:#00c7c7}.prefix__cls-19{fill:#64e1db}.prefix__cls-20{fill:#b4f5f0}.prefix__cls-21{fill:#404042}.prefix__cls-22{fill:#ffd5bf}.prefix__cls-23{fill:#23b9b9}.prefix__cls-24{fill:#1da5b9}</style></defs><g id="prefix__Mask_Group_175" data-name="Mask Group 175" transform="translate(-.479 -.464)"><path id="prefix__Path_26617" d="M29.019 0c11.524 0 14.157 11.96 14.157 23.484a18.543 18.543 0 01-.147 2.259C41.941 35.56 31.7 39.987 20.837 39.987 9.312 39.987 0 32.822 0 21.3S17.495 0 29.019 0z" data-name="Path 26617" transform="rotate(-39 38.108 21.651)" fill="#74e9e2" opacity=".21"/><g id="prefix__Group_5395" data-name="Group 5395" transform="translate(8.406 14.002)"><g id="prefix__Group_5392" data-name="Group 5392" transform="translate(9.054)"><path id="prefix__Path_26618" d="M82.21-204c-2.347 3.129-6.037 3.572-9.593 4.282a10.827 10.827 0 00.477 3.695c.587 2.055 1.779 4.111 2.407 6.245.145.011.292.023.442.023h3.419a6.239 6.239 0 002.285-.436c1.9-3.215 3.142-6.321 3.134-9.777A4.562 4.562 0 0182.21-204z" class="prefix__cls-4" data-name="Path 26618" transform="translate(-62.268 210.828)"/><path id="prefix__Path_26619" d="M82.243-214.291a4.562 4.562 0 002.57 4.031 14.878 14.878 0 00-.291-2.892 22.324 22.324 0 00-1-2.849H74a16.665 16.665 0 00-1.35 5.991c3.557-.708 7.25-1.151 9.593-4.281z" class="prefix__cls-5" data-name="Path 26619" transform="translate(-62.302 221.119)"/><path id="prefix__Path_26620" d="M52-170.245A6.263 6.263 0 0057.826-164c-.628-2.134-1.82-4.189-2.407-6.245a10.827 10.827 0 01-.477-3.695 26.015 26.015 0 00-2.941.728z" class="prefix__cls-5" data-name="Path 26620" transform="translate(-44.593 185.05)"/><path id="prefix__Path_26621" d="M56.29-216a16.841 16.841 0 00-1.29 5.059c-.034.313-.051.621-.063.929a25.763 25.763 0 00-2.94.729v-6a6.8 6.8 0 01.33-.718z" class="prefix__cls-6" data-name="Path 26621" transform="translate(-44.593 221.119)"/><path id="prefix__Path_26622" d="M151.137-215.293v5.492c-.291-.142-.575-.3-.849-.461 0-.188-.006-.382-.011-.575a14.467 14.467 0 00-.279-2.313A22.041 22.041 0 00149-216h1.818a6.077 6.077 0 01.319.707z" class="prefix__cls-7" data-name="Path 26622" transform="translate(-127.777 221.119)"/><path id="prefix__Path_26623" d="M139.174-175.7c.009 3.456-1.238 6.562-3.134 9.777a6.266 6.266 0 003.983-5.831v-3.484a12.279 12.279 0 01-.849-.462z" class="prefix__cls-7" data-name="Path 26623" transform="translate(-116.663 186.56)"/><path id="prefix__Path_26624" d="M88.84-96.85c.33-.5.647-.984.953-1.47a15.479 15.479 0 01-3.232.33 16.476 16.476 0 01-1.893-.108 6.942 6.942 0 01-.956 5.236 2.794 2.794 0 01-.712.705 4.05 4.05 0 003.561 2.144 4.045 4.045 0 003.4-1.877c-1.914-1.071-2.937-2.365-1.121-4.96z" class="prefix__cls-4" data-name="Path 26624" transform="translate(-71.178 120.201)"/><path id="prefix__Path_26625" d="M81.14-93.239a6.942 6.942 0 00.956-5.236 14.306 14.306 0 01-1.634-.285 10.79 10.79 0 01.108 1.533 10.575 10.575 0 01-.57 3.418 3.985 3.985 0 00.427 1.275 2.793 2.793 0 00.713-.705z" class="prefix__cls-5" data-name="Path 26625" transform="translate(-68.605 120.579)"/><path id="prefix__Path_26626" d="M119.429-97.227a10.563 10.563 0 01.114-1.533c-.1.023-.2.041-.3.063a65.84 65.84 0 01-.953 1.47c-1.816 2.6-.793 3.889 1.125 4.96a3.985 3.985 0 00.585-1.542 10.494 10.494 0 01-.571-3.418z" class="prefix__cls-7" data-name="Path 26626" transform="translate(-100.627 120.579)"/><path id="prefix__Path_26627" d="M142.426-59.966a4.556 4.556 0 00-3.817-3.27c-1.971-.245-4.49-.558-6.125-.763a3.985 3.985 0 01-.584 1.541c2.293 1.282 5.87 2.243 7.421 4.726a5 5 0 01.712 2.849h3.846z" data-name="Path 26627" transform="translate(-113.112 90.77)" fill="#fedb95"/><path id="prefix__Path_26628" d="M66.93-50.058c-1.551-2.482-5.13-3.442-7.421-4.726a4.045 4.045 0 01-3.4 1.877 4.05 4.05 0 01-3.561-2.144c-1.471 1.06-4.03 1.37-4.985 3.283a5.993 5.993 0 001.234 4.558h18.85a5 5 0 00-.717-2.848z" data-name="Path 26628" transform="translate(-40.721 83.095)" fill="#febd73"/><path id="prefix__Path_26629" d="M6.837-59.442c.956-1.913 3.514-2.223 4.985-3.283A3.985 3.985 0 0111.4-64l-6.125.763a4.563 4.563 0 00-3.817 3.27L0-54.884h8.071a5.993 5.993 0 01-1.234-4.558z" data-name="Path 26629" transform="translate(0 90.77)" fill="#fab06a"/><path id="prefix__Path_26630" d="M37.14-11.43v1.14H36v-1.14a.571.571 0 01.57-.57.571.571 0 01.57.57z" class="prefix__cls-11" data-name="Path 26630" transform="translate(-30.872 46.177)"/><path id="prefix__Path_26631" d="M172.57-12a.571.571 0 00-.57.57v1.14h1.14v-1.14a.571.571 0 00-.57-.57z" class="prefix__cls-11" data-name="Path 26631" transform="translate(-147.501 46.177)"/><path id="prefix__Path_26632" d="M52-168.89a1.057 1.057 0 01.57-.169 1.057 1.057 0 01.57.169v-2.32q-.579.182-1.14.412z" class="prefix__cls-12" data-name="Path 26632" transform="translate(-44.593 182.709)"/><path id="prefix__Path_26633" d="M52-177.78v1.347q.56-.231 1.14-.412v-.936z" class="prefix__cls-13" data-name="Path 26633" transform="translate(-44.593 188.343)"/><path id="prefix__Path_26634" d="M157.139-184H156v.994a10.657 10.657 0 001.139.65z" class="prefix__cls-12" data-name="Path 26634" transform="translate(-133.78 193.677)"/><path id="prefix__Path_26635" d="M156-177.02v2.994h.154a1.137 1.137 0 01.986-.57v-1.775a10.652 10.652 0 01-1.14-.649z" data-name="Path 26635" transform="translate(-133.78 187.691)" fill="#75828b"/><path id="prefix__Path_26636" d="M115.243-239.8v1.538a.5.5 0 01-.285.45.562.562 0 01-.285.063.537.537 0 01-.262-.091l-.239-.154-.359-.291-.444-.353a12.929 12.929 0 00-.262-2.188c-1.043-3.5-2.6-6.5-6.626-7.122l.051-.051c.057 0 .108-.006.165-.006a8.658 8.658 0 016.039 2.4 8.065 8.065 0 011.618 2.154 6.079 6.079 0 01.319.707 7.785 7.785 0 01.57 2.944z" data-name="Path 26636" transform="translate(-91.313 248.561)" fill="#38464b"/><path id="prefix__Path_26637" d="M104.92-251.926c.073.01.138.027.208.038l.054-.053z" class="prefix__cls-13" data-name="Path 26637" transform="translate(-89.975 251.94)"/><path id="prefix__Path_26638" d="M56.33-247.806a14.539 14.539 0 00-4.49 9.492l-.268.068q-.709.188-1.436.342l-1.065.211c-.154.028-.3.051-.444.08a.213.213 0 01-.057.006h-.034a.508.508 0 01-.342-.125.488.488 0 01-.194-.388v-1.538a7.729 7.729 0 01.57-2.929 6.8 6.8 0 01.33-.718 8.569 8.569 0 017.236-4.535c.064.006.125.023.194.034z" data-name="Path 26638" transform="translate(-41.163 248.424)" fill="#2b3437"/><path id="prefix__Path_26639" d="M84.142-242.214c.295 1.154.348 1.329.353 1.355a5.519 5.519 0 001.581 2.343l.262.208a12.93 12.93 0 00-.262-2.188c-1.04-3.5-2.6-6.5-6.625-7.123a14.544 14.544 0 00-4.491 9.5 30.79 30.79 0 002.762-.87 31.855 31.855 0 006.42-3.225z" class="prefix__cls-13" data-name="Path 26639" transform="translate(-64.283 248.235)"/><path id="prefix__Path_26640" d="M48.564-154.086a.286.286 0 01-.275-.208l-2.279-6.2a.269.269 0 01-.01-.076v-1.139a.284.284 0 01.135-.242.285.285 0 01.276-.013l3.419 1.709a.285.285 0 01.128.382.285.285 0 01-.382.128l-3.007-1.5v.64l2.269 6.166a.284.284 0 01-.2.35.267.267 0 01-.074.003z" class="prefix__cls-17" data-name="Path 26640" transform="translate(-39.448 174.81)"/><path id="prefix__Path_26641" d="M143.425-154.089a.274.274 0 01-.076-.01.284.284 0 01-.2-.35l2.269-6.166v-.64l-3.007 1.5a.285.285 0 01-.382-.128.286.286 0 01.128-.382l3.419-1.709a.281.281 0 01.276.013.284.284 0 01.135.242v1.139a.269.269 0 01-.01.076l-2.279 6.2a.286.286 0 01-.273.215z" class="prefix__cls-17" data-name="Path 26641" transform="translate(-121.774 174.813)"/><path id="prefix__Path_26642" d="M62.228-149.2l-.518.046s.285 4.21-1.709 5.76a9.182 9.182 0 003.31 1.379 14.319 14.319 0 001.634.285c-.48-2.515-1.981-4.907-2.665-7.3-.019-.055-.035-.113-.052-.17z" class="prefix__cls-18" data-name="Path 26642" transform="translate(-51.454 163.834)"/><path id="prefix__Path_26643" d="M85.377-151.556L80.249-152l-4.609.4c.017.057.033.115.051.171.684 2.392 2.185 4.783 2.665 7.3a16.473 16.473 0 001.893.108 15.479 15.479 0 003.232-.33 35.785 35.785 0 002.191-3.937 11.931 11.931 0 01-.295-3.268z" class="prefix__cls-19" data-name="Path 26643" transform="translate(-64.866 166.235)"/><path id="prefix__Path_26644" d="M134.3-123.464a4.489 4.489 0 01-1.414-2.5 35.775 35.775 0 01-2.191 3.937c.1-.021.205-.04.3-.063a9.239 9.239 0 003.305-1.374z" class="prefix__cls-20" data-name="Path 26644" transform="translate(-112.075 143.904)"/><path id="prefix__Path_26645" d="M91.982-136.858a.246.246 0 01-.056-.006l-2.793-.558-2.793.558a.287.287 0 01-.335-.224.284.284 0 01.224-.335l2.849-.57a.292.292 0 01.111 0l2.849.57a.284.284 0 01.224.335.285.285 0 01-.28.23z" class="prefix__cls-18" data-name="Path 26645" transform="translate(-73.75 154.227)"/><path id="prefix__Path_26646" d="M91.982-120.858a.246.246 0 01-.056-.006l-2.793-.558-2.793.558a.287.287 0 01-.335-.224.283.283 0 01.224-.335l2.849-.57a.292.292 0 01.111 0l2.849.57a.283.283 0 01.224.335.285.285 0 01-.28.23z" class="prefix__cls-18" data-name="Path 26646" transform="translate(-73.75 140.506)"/><path id="prefix__Path_26647" d="M156-158.86v2.279a1.143 1.143 0 001.139 1.139 1.143 1.143 0 001.14-1.139v-2.279a1.114 1.114 0 00-.336-.8 1.114 1.114 0 00-.8-.336 1.137 1.137 0 00-.986.57 1.136 1.136 0 00-.157.566z" class="prefix__cls-4" data-name="Path 26647" transform="translate(-133.78 173.096)"/><path id="prefix__Path_26648" d="M46.279-156.581v-2.279a1.114 1.114 0 00-.336-.8 1.034 1.034 0 00-.234-.182 1.136 1.136 0 00-.57-.154 1.137 1.137 0 00-.57.154 1.137 1.137 0 00-.57.986v2.279a1.143 1.143 0 001.14 1.139 1.143 1.143 0 001.14-1.143z" class="prefix__cls-6" data-name="Path 26648" transform="translate(-37.733 173.096)"/><path id="prefix__Path_26649" d="M86.414-170.857a.568.568 0 01-.217-.046.658.658 0 01-.188-.12.6.6 0 01-.165-.4.6.6 0 01.165-.4.657.657 0 01.188-.12.569.569 0 01.621.12.6.6 0 01.165.4.6.6 0 01-.165.4.6.6 0 01-.404.166z" class="prefix__cls-21" data-name="Path 26649" transform="translate(-73.616 183.383)"/><path id="prefix__Path_26650" d="M126.414-170.818a.567.567 0 01-.217-.046.531.531 0 01-.188-.12.6.6 0 01-.165-.4.6.6 0 01.165-.4.6.6 0 01.809 0 .6.6 0 01.165.4.6.6 0 01-.165.4.531.531 0 01-.188.12.567.567 0 01-.216.046z" class="prefix__cls-21" data-name="Path 26650" transform="translate(-107.919 183.344)"/></g><g id="prefix__Group_5393" data-name="Group 5393" transform="rotate(-44.03 46.58 -18.878)"><path id="prefix__Path_26651" d="M8.166 3.6L4.653 7.1l-.917.949L0 4.444 4.985 0z" class="prefix__cls-22" data-name="Path 26651" transform="translate(0 8.186)"/><path id="prefix__Path_26652" d="M3.347.312L0 3.945l.176.176L3.347.622a.7.7 0 00.179-.469.6.6 0 00-.02-.153.654.654 0 01-.159.312z" class="prefix__cls-23" data-name="Path 26652" transform="translate(12.427 2.526)"/><path id="prefix__Path_26653" d="M3.815 0a.654.654 0 01-.16.312L0 4.287l.163.166.01.01 2.343-2.582.362-.4.778-.859a.788.788 0 00.076-.1.01.01 0 010-.007.786.786 0 00.09-.236.841.841 0 00.01-.126A.6.6 0 003.815 0z" class="prefix__cls-23" data-name="Path 26653" transform="translate(11.453 1.196)"/><path id="prefix__Path_26654" d="M0 3.912l.179.183L3.512.439a.65.65 0 00.06-.273.722.722 0 00-.018-.153V0a.547.547 0 01-.038.1z" class="prefix__cls-23" data-name="Path 26654" transform="translate(10.453 .558)"/><path id="prefix__Path_26655" d="M11.852 2.526a.6.6 0 01.02.153.7.7 0 00-.2-.489.682.682 0 00-.99.017l.342-.379a.662.662 0 00.08-.11.788.788 0 01-.076.1l-.778.857-.362.4L7.544 5.66l-.01-.01-.163-.166 3.656-3.975a.654.654 0 00.16-.312.6.6 0 01.02.153.841.841 0 01-.01.126.526.526 0 00.013-.126.7.7 0 00-.21-.499.692.692 0 00-1 .02L9.884 1 6.551 4.653l-.179-.183L9.884.665a.547.547 0 00.038-.1.733.733 0 00-.194-.356.738.738 0 00-1.03 0L4.321 4.547l.206-2.493-.3 3.6.06.123a2.329 2.329 0 01.1 1.855 1.31 1.31 0 01-.568.665l-.588.349a.812.812 0 00.269-.364 1.3 1.3 0 00.552-.655 2.328 2.328 0 00-.1-1.855L3.9 5.65l.3-3.6a.665.665 0 00-.3-.604v-.007a.611.611 0 00-.136-.067c-.284 1.091-.936 1.921-1.193 2.949-.665 1.662 0 3.656-1 4.985C1.186 9.88.474 10.456 0 11.157l1.855 2.017a11.831 11.831 0 016.416-4.558l3.335-3.83a.663.663 0 00.182-.44.663.663 0 00-.109-.152.657.657 0 00-.907-.027l.921-1.017-3.171 3.5-.176-.176 3.347-3.633a.654.654 0 00.159-.315z" class="prefix__cls-19" data-name="Path 26655" transform="translate(4.081)"/><path id="prefix__Path_26656" d="M0 4.559l.4.435L2.23 3.17a.673.673 0 01.309-.216l1.639-.548a.7.7 0 00.273-.176l.324-.344L6.416 0A11.831 11.831 0 000 4.559z" class="prefix__cls-20" data-name="Path 26656" transform="translate(5.936 8.616)"/><path id="prefix__Path_26657" d="M3.659 2.97c.257-1.028.909-1.858 1.193-2.949-.02-.007-.04-.016-.061-.021a.665.665 0 00-.45.381L2.662 4.3 2 6.835 0 8.616l1.093 1.19c.474-.7 1.186-1.277 1.569-1.851.997-1.329.333-3.324.997-4.985z" class="prefix__cls-23" data-name="Path 26657" transform="translate(2.988 1.351)"/><path id="prefix__Path_26658" d="M.214 1.117L.9.435.5 0a8.719 8.719 0 00-.5.882z" class="prefix__cls-19" data-name="Path 26658" transform="translate(5.437 13.175)"/><path id="prefix__Path_26659" d="M0 .944L1.778 2.9a8.719 8.719 0 01.5-.882L.423 0A2.693 2.693 0 000 .944z" class="prefix__cls-23" data-name="Path 26659" transform="translate(3.658 11.157)"/><path id="prefix__Path_26660" d="M0 .625l1.372 1.509a2.693 2.693 0 01.423-.944L.7 0z" class="prefix__cls-24" data-name="Path 26660" transform="translate(2.287 9.967)"/><path id="prefix__Path_26661" d="M5.232.2a.682.682 0 00-.063-.179c0-.007 0-.014-.007-.021s0 0 0 .006a.663.663 0 01-.182.44L1.644 4.275 0 6.16l1.835-1.947L5.062.784a.659.659 0 00.11-.16c0-.011.012-.022.017-.033a.685.685 0 00.048-.175V.387A.68.68 0 005.232.2z" class="prefix__cls-20" data-name="Path 26661" transform="translate(10.709 4.341)"/><path id="prefix__Path_26662" d="M1.157 6.3a2.329 2.329 0 00-.1-1.855L1 4.321l.3-3.6A.665.665 0 001 .117V.11A.691.691 0 00.866.043C.85.036.833.034.817.029A.652.652 0 00.725.006C.713 0 .7.005.689 0a.649.649 0 00-.106 0C.572 0 .561 0 .55.006H.537L.528.043A.611.611 0 01.665.11l.006.007a.665.665 0 01.293.608l-.3 3.6.06.123a2.329 2.329 0 01.1 1.852 1.3 1.3 0 01-.552.655.812.812 0 01-.272.357l.588-.349a1.31 1.31 0 00.569-.663z" class="prefix__cls-23" data-name="Path 26662" transform="translate(7.312 1.329)"/></g><g id="prefix__Group_5394" data-name="Group 5394" transform="rotate(-135.97 13.571 17.055)"><path id="prefix__Path_26663" d="M8.166 4.452L4.653.949 3.736 0 0 3.608l4.985 4.444z" class="prefix__cls-22" data-name="Path 26663"/><path id="prefix__Path_26664" d="M3.347 3.809L0 .176.176 0l3.171 3.5a.7.7 0 01.179.469.6.6 0 01-.02.153.654.654 0 00-.159-.313z" class="prefix__cls-23" data-name="Path 26664" transform="translate(12.427 9.591)"/><path id="prefix__Path_26665" d="M3.815 4.464a.654.654 0 00-.16-.312L0 .176.163.01.173 0l2.343 2.582.362.4.778.857a.788.788 0 01.076.1.01.01 0 000 .007.786.786 0 01.09.236.841.841 0 01.01.126.6.6 0 01-.017.156z" class="prefix__cls-23" data-name="Path 26665" transform="translate(11.453 10.578)"/><path id="prefix__Path_26666" d="M0 .183L.179 0l3.333 3.656a.65.65 0 01.06.273.722.722 0 01-.018.153v.013a.547.547 0 00-.038-.1z" class="prefix__cls-23" data-name="Path 26666" transform="translate(10.453 11.585)"/><path id="prefix__Path_26667" d="M11.852 10.649a.6.6 0 00.02-.153.7.7 0 01-.2.489.682.682 0 01-.99-.017l.342.379a.662.662 0 01.08.11.788.788 0 00-.076-.1l-.778-.857-.362-.4-2.344-2.585-.01.01-.163.166 3.656 3.975a.654.654 0 01.16.312.6.6 0 00.02-.153.841.841 0 00-.01-.126.526.526 0 01.013.126.7.7 0 01-.206.5.692.692 0 01-1-.02l-.116-.126-3.337-3.657-.179.178 3.512 3.81a.547.547 0 01.038.1.728.728 0 01-1.225.352L4.321 8.628l.206 2.493-.3-3.6.06-.123a2.329 2.329 0 00.1-1.855 1.31 1.31 0 00-.568-.665l-.589-.345a.812.812 0 01.273.359 1.3 1.3 0 01.552.655 2.329 2.329 0 01-.1 1.855l-.06.123.3 3.6a.665.665 0 01-.292.608l-.007.007a.611.611 0 01-.136.067c-.284-1.091-.936-1.921-1.193-2.949-.665-1.662 0-3.656-1-4.985C1.186 3.295.474 2.719 0 2.017L1.855 0a11.831 11.831 0 006.416 4.559l3.335 3.83a.663.663 0 01.182.44.663.663 0 01-.109.152.657.657 0 01-.907.027l.921 1.017-3.171-3.5-.177.175 3.347 3.633a.654.654 0 01.16.316z" class="prefix__cls-19" data-name="Path 26667" transform="translate(4.081 3.063)"/><path id="prefix__Path_26668" d="M0 .435L.4 0l1.83 1.825a.673.673 0 00.309.216l1.639.548a.7.7 0 01.273.176l.324.344 1.641 1.886A11.831 11.831 0 010 .435z" class="prefix__cls-20" data-name="Path 26668" transform="translate(5.936 2.628)"/><path id="prefix__Path_26669" d="M3.659 6.837c.257 1.028.909 1.858 1.193 2.949-.021.007-.041.016-.061.021a.665.665 0 01-.45-.381L2.662 5.507 2 2.971 0 1.19 1.093 0c.474.7 1.186 1.277 1.569 1.851.997 1.33.333 3.324.997 4.986z" class="prefix__cls-23" data-name="Path 26669" transform="translate(2.988 5.08)"/><path id="prefix__Path_26670" d="M.214 0L.9.681l-.4.435A8.719 8.719 0 010 .234z" class="prefix__cls-19" data-name="Path 26670" transform="translate(5.437 1.946)"/><path id="prefix__Path_26671" d="M0 1.956L1.778 0a8.719 8.719 0 00.5.882L.423 2.9A2.693 2.693 0 010 1.956z" class="prefix__cls-23" data-name="Path 26671" transform="translate(3.658 2.181)"/><path id="prefix__Path_26672" d="M0 1.509L1.372 0a2.693 2.693 0 00.423.944L.7 2.134z" class="prefix__cls-24" data-name="Path 26672" transform="translate(2.287 4.137)"/><path id="prefix__Path_26673" d="M5.232 5.964a.682.682 0 01-.063.176c0 .007 0 .014-.007.021s0 0 0-.006a.663.663 0 00-.182-.44L1.644 1.887 0 0l1.835 1.949 3.227 3.429a.659.659 0 01.11.16c0 .011.012.022.017.033a.685.685 0 01.049.175v.029a.68.68 0 01-.006.189z" class="prefix__cls-20" data-name="Path 26673" transform="translate(10.709 5.735)"/><path id="prefix__Path_26674" d="M1.157 1.014a2.329 2.329 0 01-.1 1.855L1 2.991l.3 3.6A.665.665 0 011 7.2a.691.691 0 01-.131.067c-.016.006-.032.008-.049.013a.652.652 0 01-.091.023H.692a.649.649 0 01-.106 0c-.012 0-.022 0-.033-.005H.54c0-.011-.006-.023-.008-.034A.611.611 0 00.665 7.2h.006a.665.665 0 00.292-.608l-.3-3.6.06-.123a2.329 2.329 0 00.1-1.855 1.3 1.3 0 00-.55-.655A.812.812 0 000 0l.588.349a1.31 1.31 0 01.569.665z" class="prefix__cls-23" data-name="Path 26674" transform="translate(7.312 7.596)"/></g></g></g></svg>