<svg xmlns="http://www.w3.org/2000/svg" width="200" height="70" viewBox="0 0 200 70"><defs><clipPath id="prefix__clip-path"><path id="prefix__Rectangle_723" fill="#fff" stroke="#707070" d="M0 0h55v56H0z" data-name="Rectangle 723" transform="translate(.274 .1)"/></clipPath><style>.prefix__cls-6{fill:#fab06a}.prefix__cls-7{fill:#febd73}.prefix__cls-9{fill:#74e9e2}.prefix__cls-10{fill:#64e1db}.prefix__cls-12{fill:#4889a0}.prefix__cls-13{fill:#5c99af}</style></defs><g id="prefix__Group_5428" data-name="Group 5428" transform="translate(5995 6606)"><g id="prefix__Group_5398" data-name="Group 5398" transform="translate(-6141 -7165)"><g id="prefix__Group_5387" data-name="Group 5387" transform="translate(146 559)"><rect id="prefix__Rectangle_1206" width="200" height="70" fill="#d5fcdb" data-name="Rectangle 1206" rx="3"/></g></g><g id="prefix__Group_5404" data-name="Group 5404" transform="translate(-14511.001 9924)"><g id="prefix__Mask_Group_87" clip-path="url(#prefix__clip-path)" data-name="Mask Group 87" transform="translate(8531.726 -16522.1)"><path id="prefix__Path_26576" fill="#fff" d="M29.019 0c11.524 0 14.157 11.96 14.157 23.484a18.543 18.543 0 01-.147 2.259C41.941 35.56 31.7 39.987 20.837 39.987 9.312 39.987 0 32.822 0 21.3S17.495 0 29.019 0z" data-name="Path 26576" transform="rotate(-39 35.798 20.833)"/><g id="prefix__Group_5384" data-name="Group 5384" transform="translate(14.753 15.064)"><g id="prefix__Group_5382" data-name="Group 5382"><g id="prefix__Group_5381" data-name="Group 5381"><path id="prefix__Path_26577" fill="#ff8680" d="M78.612-25.968a.3.3 0 00.017-.027.269.269 0 00.027-.114.268.268 0 00-.027-.113.3.3 0 00-.017-.027.29.29 0 00-.052-.062l-.011-.013-2.149-1.61a.27.27 0 00-.376.054.269.269 0 00.054.376l1.5 1.128H63.075l1.5-1.128a.269.269 0 00.054-.376.27.27 0 00-.376-.054l-2.149 1.611-.011.013a.29.29 0 00-.052.062.3.3 0 00-.017.027.268.268 0 00-.027.113.27.27 0 00.027.114.3.3 0 00.017.027.29.29 0 00.052.062l.011.013 2.149 1.611a.267.267 0 00.161.054.268.268 0 00.215-.107.269.269 0 00-.054-.376l-1.5-1.128h14.506l-1.5 1.128a.269.269 0 00-.054.376.268.268 0 00.215.107.267.267 0 00.161-.054l2.149-1.611.011-.013a.291.291 0 00.049-.063z" data-name="Path 26577" transform="translate(-52.016 55.801)"/><g id="prefix__Group_5379" data-name="Group 5379"><path id="prefix__Path_26578" d="M44-130.832l4.42-.524a.663.663 0 01.756.657.663.663 0 01-.48.636L44-128.938z" class="prefix__cls-6" data-name="Path 26578" transform="translate(-37.054 142.198)"/><path id="prefix__Path_26579" d="M12-197.474v1.263a2.525 2.525 0 002.526 2.526V-200A2.525 2.525 0 0012-197.474z" class="prefix__cls-6" data-name="Path 26579" transform="translate(-10.106 200)"/><path id="prefix__Path_26580" d="M30.526-196.211v-1.263A2.525 2.525 0 0028-200v6.314a2.525 2.525 0 002.526-2.525z" class="prefix__cls-7" data-name="Path 26580" transform="translate(-23.58 200)"/><path id="prefix__Path_26581" d="M31.157-140.878a2.527 2.527 0 00-.267-1.13l-.3-.6a2.525 2.525 0 00-2.259-1.4H28v22.732h1.053a2.344 2.344 0 002.1-2.526z" class="prefix__cls-7" data-name="Path 26581" transform="translate(-23.58 152.84)"/><path id="prefix__Path_26582" d="M2.526-144l-.431.216A3.787 3.787 0 000-140.4v5.977a1.261 1.261 0 00.369.892l.524.531a1.26 1.26 0 01.369.892v8.318a2.344 2.344 0 002.1 2.526H4.42V-144z" class="prefix__cls-6" data-name="Path 26582" transform="translate(0 152.84)"/><path id="prefix__Path_26583" fill="#fb8e52" d="M0 3.173l3.157 3.141 7.76-5.041a.653.653 0 00.448-.619.655.655 0 00-.774-.641l-6.8 3.162L1.263.664" data-name="Path 26583" transform="rotate(49 -10.77 11.266)"/></g><g id="prefix__Group_5380" data-name="Group 5380" transform="translate(22.79)"><path id="prefix__Path_26584" d="M5.176.531L.756.007A.663.663 0 00.48 1.3l4.7 1.126z" class="prefix__cls-9" data-name="Path 26584" transform="rotate(-31 27.376 4.538)"/><path id="prefix__Path_26585" d="M222.526-197.474v1.263a2.525 2.525 0 01-2.526 2.525V-200a2.525 2.525 0 012.526 2.526z" class="prefix__cls-9" data-name="Path 26585" transform="translate(-211.138 200)"/><path id="prefix__Path_26586" d="M204-196.211v-1.263a2.525 2.525 0 012.526-2.526v6.314a2.525 2.525 0 01-2.526-2.525z" class="prefix__cls-10" data-name="Path 26586" transform="translate(-197.664 200)"/><path id="prefix__Path_26587" d="M200-140.878a2.527 2.527 0 01.267-1.13l.3-.6a2.525 2.525 0 012.259-1.4h.333v22.732H202.1a2.344 2.344 0 01-2.1-2.526z" class="prefix__cls-10" data-name="Path 26587" transform="translate(-194.296 152.84)"/><path id="prefix__Path_26588" d="M221.894-144l.431.216a3.787 3.787 0 012.095 3.388v5.977a1.261 1.261 0 01-.369.892l-.524.524a1.26 1.26 0 00-.369.892v8.318a2.344 2.344 0 01-2.1 2.526H220V-144z" class="prefix__cls-9" data-name="Path 26588" transform="translate(-211.138 152.84)"/><path id="prefix__Path_26589" fill="#45d3c7" d="M11.366 3.173L8.209 6.314.448 1.274A.653.653 0 010 .655.655.655 0 01.774.011l6.8 3.162L10.1.664" data-name="Path 26589" transform="rotate(-42 25.467 9.776)"/></g></g></g><g id="prefix__Group_5383" data-name="Group 5383" transform="translate(14.509 20.777)"><path id="prefix__Path_26590" d="M33-24a10.7 10.7 0 003.1 2.26h.249a19.754 19.754 0 01-.4-2.26z" class="prefix__cls-12" data-name="Path 26590" transform="translate(-29.892 30.028)"/><path id="prefix__Path_26591" d="M65.788-24H64.31a19.752 19.752 0 00.4 2.26h1.076z" class="prefix__cls-13" data-name="Path 26591" transform="translate(-58.253 30.028)"/><path id="prefix__Path_26592" fill="#377889" d="M3.108-24H0v2.26h6.211A10.7 10.7 0 013.108-24z" data-name="Path 26592" transform="translate(0 30.028)"/><path id="prefix__Path_26593" d="M2.25-88H0v6.028h3.108A5.156 5.156 0 012.25-88z" class="prefix__cls-12" data-name="Path 26593" transform="translate(0 88)"/><path id="prefix__Path_26594" d="M18.147-88A5.156 5.156 0 0019-81.972h2.949c-.248-2.009-.279-4.019-.634-6.028z" class="prefix__cls-13" data-name="Path 26594" transform="translate(-15.896 88)"/><path id="prefix__Path_26595" fill="#a3c8d5" d="M59.692-88H57.58c.355 2.009.386 4.019.634 6.028h1.478z" data-name="Path 26595" transform="translate(-52.157 88)"/></g></g></g><text id="prefix__Contact_Less_Delivery" data-name="Contact Less Delivery" font-family="Poppins-MediumItalic, Poppins" font-size="12" font-style="italic" font-weight="500" transform="translate(8597 -16499)"><tspan x="0" y="0">Contact Less </tspan><tspan x="0" y="18">Delivery</tspan></text></g></g></svg>