<svg xmlns="http://www.w3.org/2000/svg" width="200" height="70" viewBox="0 0 200 70"><defs><clipPath id="prefix__clip-path"><path id="prefix__Rectangle_724" fill="#fff" stroke="#707070" d="M0 0h55v56H0z" data-name="Rectangle 724" transform="translate(.274 -.453)"/></clipPath><style>.prefix__cls-6{fill:#64e1db}.prefix__cls-10{fill:#a3c8d5}.prefix__cls-11{fill:#ccdee6}.prefix__cls-12{fill:#e9eff5}.prefix__cls-13{fill:#f1bda7}</style></defs><g id="prefix__Group_5427" data-name="Group 5427" transform="translate(6197 6606)"><g id="prefix__Group_5395" data-name="Group 5395" transform="translate(-6343 -7165)"><g id="prefix__Group_5387" data-name="Group 5387" transform="translate(146 559)"><rect id="prefix__Rectangle_1206" width="200" height="70" fill="#d5fcdb" data-name="Rectangle 1206" rx="3"/></g></g><g id="prefix__Group_5397" data-name="Group 5397" transform="translate(-14539 9924)"><g id="prefix__Mask_Group_88" clip-path="url(#prefix__clip-path)" data-name="Mask Group 88" transform="translate(8355.726 -16522.547)"><path id="prefix__Path_26596" fill="#fff" d="M29.019 0c11.524 0 14.157 11.96 14.157 23.484a18.543 18.543 0 01-.147 2.259C41.941 35.56 31.7 39.987 20.837 39.987 9.312 39.987 0 32.822 0 21.3S17.495 0 29.019 0z" data-name="Path 26596" transform="rotate(-39 35.798 20.833)"/><g id="prefix__Group_5385" data-name="Group 5385" transform="translate(18.616 14.628)"><path id="prefix__Path_26597" fill="#00c7c7" d="M21.96-144h-4.375c-4.4 3.923-6.625 11.408-2.035 15.489a17.533 17.533 0 004.838 3.739h3.5c3.912-6.702.298-12.982-1.928-19.228z" data-name="Path 26597" transform="translate(-11.277 157.887)"/><path id="prefix__Path_26598" d="M83.213-144h-3.2c2.226 6.246 5.84 12.526 1.924 19.228h1.279a2 2 0 002.134-1.828v-15.566A2 2 0 0083.213-144z" class="prefix__cls-6" data-name="Path 26598" transform="translate(-69.327 157.887)"/><path id="prefix__Path_26599" fill="#23b9b9" d="M4.273-128.511C-.318-132.592 1.912-140.077 6.308-144H2.136A2 2 0 000-142.169v15.569a2 2 0 002.136 1.831H9.11a17.533 17.533 0 01-4.837-3.742z" data-name="Path 26599" transform="translate(0 157.887)"/><path id="prefix__Path_26600" fill="#febd73" d="M30.409-97.591v3.2H27.2v-3.2H24v-3.2h3.2V-104h3.2v3.2h3.2v3.2z" data-name="Path 26600" transform="translate(-20.795 123.228)"/><path id="prefix__Path_26601" fill="#85b4c1" d="M25.433-168A1.434 1.434 0 0024-166.567v1.772h3.952a5.629 5.629 0 01-1.23-3.2z" data-name="Path 26601" transform="translate(-20.795 178.682)"/><path id="prefix__Path_26602" d="M49.071-168H44.39a5.629 5.629 0 001.23 3.2h3.98a3.289 3.289 0 00-.529-3.2z" class="prefix__cls-10" data-name="Path 26602" transform="translate(-38.463 178.682)"/><path id="prefix__Path_26603" d="M81.66-166.567A1.434 1.434 0 0080.227-168h-.777a3.289 3.289 0 01.533 3.2h1.677z" class="prefix__cls-11" data-name="Path 26603" transform="translate(-68.841 178.682)"/><path id="prefix__Path_26604" d="M40-184v2.136h1.861A5.284 5.284 0 0141.6-184z" class="prefix__cls-10" data-name="Path 26604" transform="translate(-34.659 192.546)"/><path id="prefix__Path_26605" d="M72.245-184h-1.2a3.317 3.317 0 01.162 2.136h1.033z" class="prefix__cls-12" data-name="Path 26605" transform="translate(-61.563 192.546)"/><path id="prefix__Path_26606" d="M54.544-184H52a5.284 5.284 0 00.259 2.136h2.446a3.317 3.317 0 00-.161-2.136z" class="prefix__cls-11" data-name="Path 26606" transform="translate(-45.057 192.546)"/><path id="prefix__Path_26607" d="M61.637-211.727h.855V-216H61.9a3.464 3.464 0 00-.263 4.273z" class="prefix__cls-12" data-name="Path 26607" transform="translate(-52.878 220.273)"/><path id="prefix__Path_26608" d="M50.612-216H48v4.273h2.35a3.464 3.464 0 01.262-4.273z" class="prefix__cls-11" data-name="Path 26608" transform="translate(-41.591 220.273)"/><path id="prefix__Path_26609" d="M122.136-200l1.832 3.112a2.206 2.206 0 01-.32 2.657 2.106 2.106 0 01-3.018 0 2.206 2.206 0 01-.32-2.657z" class="prefix__cls-6" data-name="Path 26609" transform="translate(-103.977 206.409)"/><path id="prefix__Path_26610" d="M83.867-243.937c-.72-2.374-3.373-4.063-6.448-4.063H75.91c2.375 2.087 6.401 1.638 7.957 4.063z" class="prefix__cls-12" data-name="Path 26610" transform="translate(-65.774 248)"/><path id="prefix__Path_26611" d="M58.544-248h-1.556c-1.116.984-1.561 2.339-.567 2.671 2.791 1.4 6.393 1.171 10.1 1.442l-.017-.049c-1.558-2.426-5.584-1.977-7.96-4.064z" class="prefix__cls-11" data-name="Path 26611" transform="translate(-48.409 248)"/><path id="prefix__Path_26612" d="M28.807-245.329c-.993-.331-.549-1.686.567-2.671h-3.238A1.959 1.959 0 0024-246.291v2.564h14.955c-.013-.055-.033-.107-.049-.16-3.706-.271-7.306-.047-10.099-1.442z" class="prefix__cls-10" data-name="Path 26612" transform="translate(-20.795 248)"/><path id="prefix__Path_26613" d="M99.762-125.209c-2.67 0-5.341 3.2-8.546 2.136-2.939-.98-7.216-1.07-8.731-3.959l-.844-.187a1.066 1.066 0 00-.988.287l-.653.654 11.75 5.341 8.546-3.206h2.136v-.654a10.084 10.084 0 00-2.67-.412z" class="prefix__cls-13" data-name="Path 26613" transform="translate(-69.318 143.368)"/><path id="prefix__Path_26614" fill="#ffd5bf" d="M112.449-149.61l-4.984 2.078a1.067 1.067 0 00-.657.985v.382a1.067 1.067 0 001.465.991l3.876-1.55-3.876 1.55-1.465.586-8.2-1.823c1.516 2.889 5.792 2.979 8.731 3.959 3.2 1.068 5.875-2.136 8.546-2.136a10.084 10.084 0 012.671.414v-3.114c-2.356-.155-4.545-.692-6.107-2.322z" data-name="Path 26614" transform="translate(-85.443 162.748)"/><path id="prefix__Path_26615" fill="#fbe3da" d="M206.222-150.932L203.016-152l-.766.319c1.562 1.63 3.748 2.167 6.109 2.322v-1.573z" data-name="Path 26615" transform="translate(-175.245 164.818)"/><path id="prefix__Path_26616" d="M161.463-126.985l3.878-1.015-3.878 1.549a1.066 1.066 0 01-1.463-.988v-.385a.091.091 0 01.005-.037 1.068 1.068 0 001.458.876z" class="prefix__cls-13" data-name="Path 26616" transform="translate(-138.636 144.023)"/></g></g><text id="prefix__Sanitization_Every_4_Hrs" data-name="Sanitization Every 4 Hrs" font-family="Poppins-MediumItalic, Poppins" font-size="12" font-style="italic" font-weight="500" transform="translate(8421 -16499)"><tspan x="0" y="0">Sanitization </tspan><tspan x="0" y="18">Every 4 Hrs</tspan></text></g></g></svg>