<?xml version="1.0" encoding="UTF-8"?>
<svg width="40px" height="40px" viewBox="0 0 40 40" version="1.1" xmlns="http://www.w3.org/2000/svg" xmlns:xlink="http://www.w3.org/1999/xlink">
    <!-- Generator: Sketch 53.2 (72643) - https://sketchapp.com -->
    <title>Artboard</title>
    <desc>Created with Sketch.</desc>
    <g id="Artboard" stroke="none" stroke-width="1" fill="none" fill-rule="evenodd" opacity="0.800000012">
        <g id="delete-(1)" transform="translate(5.000000, 2.000000)" fill="#333333" fill-rule="nonzero" stroke="#333333" stroke-width="0.5">
            <path d="M20.420555,13.0659965 C19.9443965,13.0659965 19.558486,13.4416521 19.558486,13.9051573 L19.558486,29.7652972 C19.558486,30.2284746 19.9443965,30.604458 20.420555,30.604458 C20.8967133,30.604458 21.2826239,30.2284746 21.2826239,29.7652972 L21.2826239,13.9051573 C21.2826239,13.4416521 20.8967133,13.0659965 20.420555,13.0659965 Z" id="Path"></path>
            <path d="M9.94814121,13.0659965 C9.47198276,13.0659965 9.08607224,13.4416521 9.08607224,13.9051573 L9.08607224,29.7652972 C9.08607224,30.2284746 9.47198276,30.604458 9.94814121,30.604458 C10.4242996,30.604458 10.8102102,30.2284746 10.8102102,29.7652972 L10.8102102,13.9051573 C10.8102102,13.4416521 10.4242996,13.0659965 9.94814121,13.0659965 Z" id="Path"></path>
            <path d="M2.5343481,10.7514205 L2.5343481,31.4265734 C2.5343481,32.6486014 2.9946794,33.7962194 3.7988281,34.619646 C4.59927259,35.4453671 5.71322741,35.9141171 6.87904095,35.9160839 L23.1896552,35.9160839 C24.3558055,35.9141171 25.4697603,35.4453671 26.269868,34.619646 C27.0740167,33.7962194 27.5343481,32.6486014 27.5343481,31.4265734 L27.5343481,10.7514205 C29.1328798,10.338396 30.1687096,8.83511799 29.954876,7.23841779 C29.7407059,5.64204545 28.3435479,4.44788022 26.6894531,4.44755245 L22.2757274,4.44755245 L22.2757274,3.3986014 C22.2807785,2.5164991 21.9224811,1.66947113 21.2809806,1.04632867 C20.6394801,0.423513986 19.7679822,0.0767045455 18.8617996,0.0839160839 L11.2068966,0.0839160839 C10.3007139,0.0767045455 9.42921603,0.423513986 8.78771552,1.04632867 C8.146215,1.66947113 7.78791759,2.5164991 7.79296879,3.3986014 L7.79296879,4.44755245 L3.37924302,4.44755245 C1.72514819,4.44788022 0.327990345,5.64204545 0.11382,7.23841779 C-0.100013448,8.83511799 0.935816293,10.338396 2.5343481,10.7514205 Z M23.1896552,34.2377622 L6.87904095,34.2377622 C5.40510509,34.2377622 4.25848603,33.0052448 4.25848603,31.4265734 L4.25848603,10.8251748 L25.8102102,10.8251748 L25.8102102,31.4265734 C25.8102102,33.0052448 24.663591,34.2377622 23.1896552,34.2377622 Z M9.51710672,3.3986014 C9.51138198,2.96164775 9.68783672,2.54108392 10.0063982,2.23262677 C10.3246228,1.92416962 10.7576778,1.75469841 11.2068966,1.76223776 L18.8617996,1.76223776 C19.3110183,1.75469841 19.7440733,1.92416962 20.0622979,2.23262677 C20.3808594,2.54075614 20.5573141,2.96164775 20.5515895,3.3986014 L20.5515895,4.44755245 L9.51710672,4.44755245 L9.51710672,3.3986014 Z M3.37924302,6.12587413 L26.6894531,6.12587413 C27.5464709,6.12587413 28.2411772,6.80211978 28.2411772,7.63636364 C28.2411772,8.4706075 27.5464709,9.14685315 26.6894531,9.14685315 L3.37924302,9.14685315 C2.52222517,9.14685315 1.82751888,8.4706075 1.82751888,7.63636364 C1.82751888,6.80211978 2.52222517,6.12587413 3.37924302,6.12587413 Z" id="Shape"></path>
            <path d="M15.334348,13.0659965 C14.8581895,13.0659965 14.472279,13.4416521 14.472279,13.9051573 L14.472279,29.7652972 C14.472279,30.2284746 14.8581895,30.604458 15.334348,30.604458 C15.8105063,30.604458 16.1964169,30.2284746 16.1964169,29.7652972 L16.1964169,13.9051573 C16.1964169,13.4416521 15.8105063,13.0659965 15.334348,13.0659965 Z" id="Path"></path>
        </g>
    </g>
</svg>