<svg xmlns="http://www.w3.org/2000/svg" width="9.995" height="14.737" viewBox="0 0 9.995 14.737"><g id="prefix__rupee_2_" data-name="rupee (2)" transform="translate(.254 .25)"><g id="prefix__Group_1695" data-name="Group 1695"><g id="prefix__Group_1694" data-name="Group 1694"><path id="prefix__Path_24340" d="M8.701 3.164h-.872a3.9 3.9 0 00-.731-1.582h1.6a.791.791 0 100-1.582H.788a.791.791 0 100 1.582h3.164a2.369 2.369 0 012.227 1.582H.788a.791.791 0 100 1.582h5.391a2.369 2.369 0 01-2.227 1.582H.788a.791.791 0 00-.731.489.785.785 0 000 .6.754.754 0 00.172.258L6.559 14a.791.791 0 101.12-1.117L2.701 7.905h1.254a3.959 3.959 0 003.874-3.164h.872a.791.791 0 100-1.582z" data-name="Path 24340" fill="#1c2120" stroke="#1c2120" stroke-width=".5"/></g></g></g></svg>