<svg xmlns="http://www.w3.org/2000/svg" width="55" height="56" viewBox="0 0 55 56"><defs><clipPath id="prefix__clip-path"><path id="prefix__Rectangle_1172" d="M0 0h55v56H0z" data-name="Rectangle 1172" transform="translate(.274 .1)" fill="#fff" stroke="#707070"/></clipPath><style>.prefix__cls-8{fill:#74e9e2}.prefix__cls-5{fill:#fab06a}.prefix__cls-6{fill:#febd73}.prefix__cls-9{fill:#64e1db}.prefix__cls-11{fill:#4889a0}.prefix__cls-12{fill:#5c99af}</style></defs><g id="prefix__Mask_Group_177" data-name="Mask Group 177" transform="translate(-.274 -.1)"><path id="prefix__Path_26706" d="M29.019 0c11.524 0 14.157 11.96 14.157 23.484a18.543 18.543 0 01-.147 2.259C41.941 35.56 31.7 39.987 20.837 39.987 9.312 39.987 0 32.822 0 21.3S17.495 0 29.019 0z" data-name="Path 26706" transform="rotate(-39 35.798 20.833)" opacity=".21" fill="#74e9e2"/><g id="prefix__Group_5402" data-name="Group 5402" transform="translate(14.753 15.064)"><g id="prefix__Group_5400" data-name="Group 5400"><g id="prefix__Group_5399" data-name="Group 5399"><path id="prefix__Path_26707" d="M78.612-25.968a.3.3 0 00.017-.027.269.269 0 00.027-.114.268.268 0 00-.027-.113.3.3 0 00-.017-.027.29.29 0 00-.052-.062l-.011-.013-2.149-1.61a.27.27 0 00-.376.054.269.269 0 00.054.376l1.5 1.128H63.075l1.5-1.128a.269.269 0 00.054-.376.27.27 0 00-.376-.054l-2.149 1.611-.011.013a.29.29 0 00-.052.062.3.3 0 00-.017.027.268.268 0 00-.027.113.27.27 0 00.027.114.3.3 0 00.017.027.29.29 0 00.052.062l.011.013 2.149 1.611a.267.267 0 00.161.054.268.268 0 00.215-.107.269.269 0 00-.054-.376l-1.5-1.128h14.506l-1.5 1.128a.269.269 0 00-.054.376.268.268 0 00.215.107.267.267 0 00.161-.054l2.149-1.611.011-.013a.291.291 0 00.049-.063z" data-name="Path 26707" transform="translate(-52.016 55.801)" fill="#ff8680"/><g id="prefix__Group_5397" data-name="Group 5397"><path id="prefix__Path_26708" d="M44-130.832l4.42-.524a.663.663 0 01.756.657.663.663 0 01-.48.636L44-128.938z" class="prefix__cls-5" data-name="Path 26708" transform="translate(-37.054 142.198)"/><path id="prefix__Path_26709" d="M12-197.474v1.263a2.525 2.525 0 002.526 2.526V-200A2.525 2.525 0 0012-197.474z" class="prefix__cls-5" data-name="Path 26709" transform="translate(-10.106 200)"/><path id="prefix__Path_26710" d="M30.526-196.211v-1.263A2.525 2.525 0 0028-200v6.314a2.525 2.525 0 002.526-2.525z" class="prefix__cls-6" data-name="Path 26710" transform="translate(-23.58 200)"/><path id="prefix__Path_26711" d="M31.157-140.878a2.527 2.527 0 00-.267-1.13l-.3-.6a2.525 2.525 0 00-2.259-1.4H28v22.732h1.053a2.344 2.344 0 002.1-2.526z" class="prefix__cls-6" data-name="Path 26711" transform="translate(-23.58 152.84)"/><path id="prefix__Path_26712" d="M2.526-144l-.431.216A3.787 3.787 0 000-140.4v5.977a1.261 1.261 0 00.369.892l.524.531a1.26 1.26 0 01.369.892v8.318a2.344 2.344 0 002.1 2.526H4.42V-144z" class="prefix__cls-5" data-name="Path 26712" transform="translate(0 152.84)"/><path id="prefix__Path_26713" d="M0 3.173l3.157 3.141 7.76-5.041a.653.653 0 00.448-.619.655.655 0 00-.774-.641l-6.8 3.162L1.263.664" data-name="Path 26713" transform="rotate(49 -10.77 11.266)" fill="#fb8e52"/></g><g id="prefix__Group_5398" data-name="Group 5398" transform="translate(22.79)"><path id="prefix__Path_26714" d="M5.176.531L.756.007A.663.663 0 00.48 1.3l4.7 1.126z" class="prefix__cls-8" data-name="Path 26714" transform="rotate(-31 27.376 4.538)"/><path id="prefix__Path_26715" d="M222.526-197.474v1.263a2.525 2.525 0 01-2.526 2.525V-200a2.525 2.525 0 012.526 2.526z" class="prefix__cls-8" data-name="Path 26715" transform="translate(-211.138 200)"/><path id="prefix__Path_26716" d="M204-196.211v-1.263a2.525 2.525 0 012.526-2.526v6.314a2.525 2.525 0 01-2.526-2.525z" class="prefix__cls-9" data-name="Path 26716" transform="translate(-197.664 200)"/><path id="prefix__Path_26717" d="M200-140.878a2.527 2.527 0 01.267-1.13l.3-.6a2.525 2.525 0 012.259-1.4h.333v22.732H202.1a2.344 2.344 0 01-2.1-2.526z" class="prefix__cls-9" data-name="Path 26717" transform="translate(-194.296 152.84)"/><path id="prefix__Path_26718" d="M221.894-144l.431.216a3.787 3.787 0 012.095 3.388v5.977a1.261 1.261 0 01-.369.892l-.524.524a1.26 1.26 0 00-.369.892v8.318a2.344 2.344 0 01-2.1 2.526H220V-144z" class="prefix__cls-8" data-name="Path 26718" transform="translate(-211.138 152.84)"/><path id="prefix__Path_26719" d="M11.366 3.173L8.209 6.314.448 1.274A.653.653 0 010 .655.655.655 0 01.774.011l6.8 3.162L10.1.664" data-name="Path 26719" transform="rotate(-42 25.467 9.776)" fill="#45d3c7"/></g></g></g><g id="prefix__Group_5401" data-name="Group 5401" transform="translate(14.509 20.777)"><path id="prefix__Path_26720" d="M33-24a10.7 10.7 0 003.1 2.26h.249a19.754 19.754 0 01-.4-2.26z" class="prefix__cls-11" data-name="Path 26720" transform="translate(-29.892 30.028)"/><path id="prefix__Path_26721" d="M65.788-24H64.31a19.752 19.752 0 00.4 2.26h1.076z" class="prefix__cls-12" data-name="Path 26721" transform="translate(-58.253 30.028)"/><path id="prefix__Path_26722" d="M3.108-24H0v2.26h6.211A10.7 10.7 0 013.108-24z" data-name="Path 26722" transform="translate(0 30.028)" fill="#377889"/><path id="prefix__Path_26723" d="M2.25-88H0v6.028h3.108A5.156 5.156 0 012.25-88z" class="prefix__cls-11" data-name="Path 26723" transform="translate(0 88)"/><path id="prefix__Path_26724" d="M18.147-88A5.156 5.156 0 0019-81.972h2.949c-.248-2.009-.279-4.019-.634-6.028z" class="prefix__cls-12" data-name="Path 26724" transform="translate(-15.896 88)"/><path id="prefix__Path_26725" d="M59.692-88H57.58c.355 2.009.386 4.019.634 6.028h1.478z" data-name="Path 26725" transform="translate(-52.157 88)" fill="#a3c8d5"/></g></g></g></svg>