<svg xmlns="http://www.w3.org/2000/svg" width="32" height="32" viewBox="0 0 32 32"><g id="prefix__cart" transform="translate(-5231 5711)"><path id="prefix__Rectangle_159" d="M0 0h32v32H0z" data-name="Rectangle 159" transform="translate(5231 -5711)" fill="none"/><g id="prefix__cart-2" data-name="cart" transform="translate(5235.091 -5706.5)"><g id="prefix__cart-3" data-name="cart" transform="translate(.5 1.5)"><g id="prefix__Rectangle" stroke-miterlimit="10" fill="none"><path d="M.444 2.369A2 2 0 012.41 0h18.18a2 2 0 011.966 2.369l-2.25 12A2 2 0 0118.34 16H4.66a2 2 0 01-1.966-1.631z" transform="translate(0 5)"/><path d="M2.41 1.7a.292.292 0 00-.231.108.295.295 0 00-.064.247l2.25 12a.3.3 0 00.295.245h13.68a.3.3 0 00.295-.245l2.25-12a.295.295 0 00-.064-.247.292.292 0 00-.23-.108H2.41m0-1.7h18.18a2 2 0 011.966 2.369l-2.25 12A2 2 0 0118.34 16H4.66a2 2 0 01-1.966-1.631l-2.25-12A2.001 2.001 0 012.41 0z" transform="translate(0 5)" fill="#333"/></g><path id="prefix__Path" d="M7 9V4.5a4.5 4.5 0 019 0V9" stroke="#333" stroke-linecap="round" stroke-width="1.7" stroke-miterlimit="10" fill="none"/><path id="prefix__Path_23795" d="M.75 0H9.5a.75.75 0 010 1.5H.75a.75.75 0 010-1.5z" data-name="Path 23795" transform="translate(6.409 15)" fill="red"/></g></g></g></svg>