<svg xmlns="http://www.w3.org/2000/svg" width="173.751" height="141.444" viewBox="0 0 173.751 141.444"><path d="M35.634 17.91c0-.828-1.842-1.527-4.368-1.752-.225-2.525-.924-4.367-1.751-4.367s-1.527 1.842-1.752 4.367c-2.526.225-4.368.924-4.368 1.752s1.842 1.526 4.368 1.751c.225 2.525.924 4.368 1.752 4.368s1.526-1.842 1.752-4.368c2.526-.225 4.368-.924 4.368-1.751zm3.873-7.149c.179-.37-.491-1.081-1.569-1.728.446-1.175.534-2.147.165-2.327s-1.08.491-1.727 1.569c-1.175-.446-2.148-.533-2.328-.164s.491 1.08 1.569 1.727c-.447 1.176-.534 2.148-.164 2.328s1.08-.491 1.727-1.569c1.175.443 2.147.531 2.327.164zm1.355-6.4c.294-.1.315-.842.084-1.766.868-.391 1.436-.864 1.334-1.158s-.841-.315-1.765-.085c-.39-.868-.864-1.436-1.159-1.334s-.315.841-.084 1.766c-.869.39-1.437.864-1.335 1.158s.841.315 1.765.084c.393.869.866 1.436 1.16 1.335zm-22.844 92.1c-.529-1.213-3.676-1.062-7.522.224-1.944-3.559-4.146-5.813-5.359-5.284s-1.061 3.677.224 7.522c-3.559 1.944-5.813 4.146-5.284 5.359s3.676 1.061 7.522-.224c1.944 3.559 4.146 5.813 5.36 5.284s1.06-3.676-.224-7.522c3.559-1.952 5.813-4.153 5.283-5.367zm155.728-15.6c-.14-1.191-2.908-1.891-6.582-1.793-.745-3.6-2.059-6.135-3.251-6s-1.891 2.907-1.793 6.581c-3.6.745-6.136 2.059-6 3.252s2.908 1.889 6.582 1.793c.746 3.6 2.06 6.135 3.252 6s1.891-2.907 1.793-6.582c3.6-.742 6.136-2.051 5.999-3.251zm-30.765 37.689a11.063 11.063 0 01-9.694 12.282c-21.975 2.588-64.94 4.64-87.9 10.351-5.931 1.475-12.373-3.583-12.281-9.692.6-39.886-3.676-62.383-10.352-87.9-1.546-5.911 3.625-11.566 9.694-12.281l87.9-10.351a11.063 11.063 0 0112.282 9.693s2.41 31.719 3.654 42.285c1.343 11.411 6.7 45.618 6.7 45.618z" fill="#e6e7e8"/><path d="M132.699 112.153a9.173 9.173 0 01-8.036 10.183c-18.22 2.145-53.84 3.847-72.877 8.581-4.917 1.224-10.258-2.97-10.181-8.037.495-33.066-3.048-51.719-8.583-72.878-1.282-4.9 3.006-9.589 8.037-10.182l72.876-8.582a9.173 9.173 0 0110.183 8.037s2 26.3 3.029 35.056c1.114 9.461 5.552 37.822 5.552 37.822z" fill="#fff"/></svg>