<svg xmlns="http://www.w3.org/2000/svg" width="32" height="32" viewBox="0 0 32 32"><defs><style>.prefix__cls-2{fill:red}.prefix__cls-4{fill:#333;stroke:#333;stroke-width:.7px}</style></defs><g id="prefix__track" transform="translate(-5211 5711)"><path id="prefix__Rectangle_158" d="M0 0h32v32H0z" data-name="Rectangle 158" transform="translate(5211 -5711)" fill="none"/><g id="prefix__route_2_" data-name="route (2)" transform="translate(5212.363 -5711.947)"><path id="prefix__Path_23784" d="M63.893 62.384a1.7 1.7 0 11-1.7-1.7 1.7 1.7 0 011.7 1.7zm0 0" class="prefix__cls-2" data-name="Path 23784" transform="translate(-55.671 -52.538)"/><path id="prefix__Path_23785" d="M328.233 210.556a3.208 3.208 0 11-3.208-3.208 3.208 3.208 0 013.208 3.208zm0 0" class="prefix__cls-2" data-name="Path 23785" transform="translate(-304.242 -196.963)"/><g id="prefix__Group_857" data-name="Group 857" transform="translate(2.637 5.947)"><path id="prefix__Path_23790" d="M4.618 9.751l2.468-3.652a3.885 3.885 0 00.246-3.978 3.867 3.867 0 00-6.828-.139 3.92 3.92 0 00.171 4.123l2.463 3.646a.9.9 0 001.48 0zm-1.047-.292L1.107 5.812A3.4 3.4 0 01.96 2.236a3.363 3.363 0 115.693 3.573l-2.466 3.65a.372.372 0 01-.616 0zm0 0" data-name="Path 23790" stroke-width=".5" fill="#333" stroke="#333"/><path id="prefix__Path_23792" d="M268.481 146.77a6.527 6.527 0 00-5.652 10.2l4.12 6.1a1.5 1.5 0 002.478 0l4.123-6.1a6.525 6.525 0 00-5.069-10.2zm4.346 9.7l-4.123 6.1a.621.621 0 01-1.031 0l-4.12-6.1a5.636 5.636 0 119.273-.006zm0 0" class="prefix__cls-4" data-name="Path 23792" transform="translate(-250.044 -145.634)"/><path id="prefix__Path_23794" d="M125.431 327.309a.437.437 0 00-.437.437v.491a.656.656 0 01-.655.655H117.9a.656.656 0 01-.655-.655v-3.785a1.53 1.53 0 00-1.529-1.529h-3.6a.656.656 0 01-.655-.655v-2.4a.437.437 0 00-.873 0v2.4a1.53 1.53 0 001.529 1.529h3.6a.656.656 0 01.655.655v3.785a1.53 1.53 0 001.529 1.529h6.442a1.53 1.53 0 001.529-1.529v-.491a.437.437 0 00-.441-.437zm0 0" class="prefix__cls-4" data-name="Path 23794" transform="translate(-107.176 -307.716)"/></g></g></g></svg>