<svg xmlns="http://www.w3.org/2000/svg" width="32" height="32" viewBox="0 0 32 32"><defs><style>.prefix__cls-2{fill:#333;stroke:#333;stroke-width:.3px}</style></defs><g id="prefix__profile" transform="translate(-5270 5711)"><path id="prefix__Rectangle_160" d="M0 0h32v32H0z" data-name="Rectangle 160" transform="translate(5270 -5711)" fill="none"/><g id="prefix__avatar_3_" data-name="avatar (3)" transform="translate(5239.927 -5707)"><g id="prefix__Group_855" data-name="Group 855" transform="translate(36.073)"><path id="prefix__Path_23777" d="M142.182 12.932h.159a4.586 4.586 0 003.5-1.516c1.913-2.157 1.6-5.855 1.561-6.207A5.07 5.07 0 00144.995.7a5.526 5.526 0 00-2.674-.7h-.085a5.534 5.534 0 00-2.674.681 5.074 5.074 0 00-2.44 4.528c-.035.353-.353 4.051 1.561 6.207a4.568 4.568 0 003.499 1.516zm-3.732-7.6v-.04c.164-3.563 2.694-3.946 3.777-3.946h.06c1.342.03 3.623.577 3.777 3.946a.1.1 0 000 .04c0 .035.353 3.414-1.228 5.194a3.257 3.257 0 01-2.56 1.064h-.05a3.247 3.247 0 01-2.555-1.064c-1.565-1.769-1.227-5.163-1.222-5.193z" class="prefix__cls-2" data-name="Path 23777" transform="translate(-132.061)"/><path id="prefix__Path_23778" d="M56.486 265.425v-.139c-.03-.984-.094-3.285-2.251-4.021l-.05-.015a14.34 14.34 0 01-4.125-1.879.671.671 0 10-.77 1.1 15.479 15.479 0 004.538 2.072c1.158.413 1.287 1.65 1.322 2.783a1 1 0 000 .124 9.023 9.023 0 01-.1 1.536 18.291 18.291 0 01-8.762 2.038 18.4 18.4 0 01-8.767-2.043 8.541 8.541 0 01-.1-1.536v-.124c.035-1.133.164-2.371 1.322-2.783a15.623 15.623 0 004.538-2.073.671.671 0 10-.77-1.1 14.185 14.185 0 01-4.125 1.879l-.05.015c-2.157.741-2.222 3.042-2.251 4.021a1 1 0 010 .124v.015a7.622 7.622 0 00.253 2.251.638.638 0 00.258.313 18.8 18.8 0 009.7 2.376 18.856 18.856 0 009.7-2.376.665.665 0 00.258-.313 8 8 0 00.232-2.245z" class="prefix__cls-2" data-name="Path 23778" transform="translate(-36.073 -246.36)"/><path id="prefix__Path_23796" d="M.75 0h3.362a.75.75 0 010 1.5H.75a.75.75 0 010-1.5z" data-name="Path 23796" transform="translate(12 18)" fill="red"/></g></g></g></svg>